<svg width="10" height="8" viewBox="0 0 10 8" fill="none" xmlns="http://www.w3.org/2000/svg">
<path id="Vector" d="M0.666757 0.333984H9.33324C9.70132 0.333984 10 0.633974 10 1.0037V7.03212C10.0003 7.11989 9.98321 7.20685 9.94983 7.28803C9.91645 7.3692 9.86739 7.44301 9.80547 7.50521C9.74354 7.56741 9.66996 7.61679 9.58893 7.65053C9.5079 7.68427 9.42101 7.7017 9.33324 7.70183H0.666757C0.489543 7.70139 0.319757 7.6306 0.194725 7.50501C0.069694 7.37943 -0.000346463 7.20933 2.91908e-06 7.03212V1.0037C-0.000256602 0.915927 0.0167908 0.828965 0.05017 0.747787C0.0835492 0.66661 0.132605 0.592809 0.194532 0.530607C0.256459 0.468406 0.330041 0.419023 0.41107 0.385285C0.492099 0.351546 0.578985 0.334114 0.666757 0.333984ZM0.799976 1.1379V6.89857H9.19969V1.1379H0.799976ZM2.22197 2.34411L4.99984 4.20491L7.7777 2.34411C7.96158 2.22109 8.20992 2.27076 8.33229 2.45562C8.45465 2.64049 8.40531 2.88982 8.22144 3.01284L5.22154 5.02231C5.15593 5.06637 5.0787 5.08989 4.99967 5.08989C4.92065 5.08989 4.84341 5.06637 4.7778 5.02231L1.7779 3.01284C1.59403 2.88982 1.54436 2.64016 1.66705 2.45562C1.78975 2.27109 2.03842 2.22109 2.22197 2.34411Z" fill="black"/>
</svg>
