<svg width="20" height="19" viewBox="0 0 20 19" fill="none" xmlns="http://www.w3.org/2000/svg">
<path id="Vector" d="M3.9603 1.99116L2.8153 3.53179C2.35842 4.14679 2.22655 5.19929 2.51342 5.89304C2.51342 5.89304 3.48467 8.93053 6.85967 12.3043C10.2347 15.678 13.2728 16.6493 13.2728 16.6493C13.9672 16.9505 15.024 16.8012 15.6347 16.3474L17.1759 15.2024C17.7909 14.7455 17.7934 14.0118 17.1909 13.5562L14.974 11.8787C14.6922 11.6649 14.2065 11.6643 13.9184 11.898L12.384 13.1449C12.1003 13.3755 11.6078 13.4155 11.2934 13.2262C11.2934 13.2262 9.7078 12.3493 8.26155 10.903C6.8153 9.45679 5.95405 7.89741 5.95405 7.89741C5.74842 7.56366 5.78467 7.06929 6.01905 6.78116L7.26592 5.24741C7.49655 4.96366 7.50905 4.48679 7.2853 4.19179L5.60717 1.97554C5.14967 1.37179 4.41405 1.38054 3.9603 1.99116ZM7.74967 7.88429C8.15205 8.4771 8.59963 9.03793 9.08842 9.56179C9.27016 9.75436 9.45796 9.94112 9.65155 10.1218C10.2934 10.7138 10.9889 11.2448 11.729 11.708L12.9534 10.713C13.7859 10.0368 15.0497 10.0212 15.8947 10.6605L18.1115 12.338C19.5297 13.4112 19.5153 15.3674 18.0859 16.4293L16.5447 17.5743C15.5172 18.338 13.9284 18.5605 12.7403 18.083C12.2615 17.923 11.5178 17.5999 10.5822 17.0737C8.9878 16.1768 7.35717 14.9624 5.77905 13.3849C4.20092 11.8074 2.98592 10.1768 2.08905 8.58304C1.5378 7.60304 1.20967 6.83304 1.10092 6.47741C0.607171 5.28429 0.812796 3.66366 1.58842 2.62054L2.73405 1.07929C3.79342 -0.345715 5.75155 -0.365089 6.8253 1.05366L8.50342 3.26991C9.15155 4.12616 9.1253 5.38179 8.45092 6.21116L7.45592 7.43491C7.53342 7.55929 7.63155 7.71116 7.74967 7.88429Z" fill="black"/>
</svg>
